<svg width="212" height="212" viewBox="0 0 212 212" fill="none" xmlns="http://www.w3.org/2000/svg">
<path fill-rule="evenodd" clip-rule="evenodd" d="M139.33 43.1862C139.973 43.1797 140.537 43.1742 141.022 43.1742C152.993 43.1743 162 45.7237 168.042 50.8196C174.083 55.915 177.105 62.457 177.106 70.4468C177.106 74.4998 176.25 78.4972 174.54 82.4345C172.944 86.2565 170.208 89.7919 166.332 93.0348C162.57 96.162 157.493 98.7113 151.109 100.68V101.029C160.115 102.187 167.127 104.387 172.143 107.629C177.274 110.756 180.871 114.461 182.923 118.746C184.975 123.03 186 127.548 186 132.295C186 138.897 184.344 144.748 181.038 149.844C177.846 154.824 173.169 158.762 167.013 161.658C160.856 164.553 153.504 166 144.954 166C143.5 166 141.626 165.973 139.33 165.934V166C138.978 165.967 138.61 165.944 138.228 165.916C136.845 165.89 135.325 165.864 133.669 165.826C130.139 165.663 126.099 165.562 121.553 165.514C120.428 165.503 119.284 165.493 118.12 165.49C117.516 165.487 116.904 165.484 116.283 165.483C112.288 165.487 108.347 165.54 104.462 165.652C100.955 165.652 97.9575 165.743 95.4714 165.91C95.0753 165.94 94.6955 165.965 94.3333 166V165.988C94.2869 165.992 94.2407 165.996 94.1948 166V162.529C95.4831 162.454 96.6722 162.338 97.7658 162.216C99.9743 161.958 101.737 161.607 103.053 161.135C105.105 160.44 106.476 159.052 107.16 156.967C107.844 154.882 108.184 151.755 108.184 147.586V103.863C105.708 104.015 103.639 104.34 101.981 104.848C99.9765 105.427 98.0896 106.643 96.3205 108.494C94.4324 110.231 92.3034 112.897 89.9432 116.488L64.1029 154.709C62.2147 157.373 61.8003 159.286 62.8623 160.445C63.925 161.602 66.4631 162.297 70.4741 162.529V166C66.1081 165.768 62.5089 165.652 59.6767 165.652C56.7265 165.536 54.2457 165.483 52.2396 165.483C49.2902 165.484 45.7513 165.536 41.6228 165.652C37.3745 165.652 33.8322 165.768 31 166V162.529C34.6583 161.602 37.6668 160.324 40.027 158.703C42.387 157.081 44.5729 154.824 46.5789 151.928L87.679 95.4432L58.7915 59.1558C55.3694 54.8707 51.9461 51.8018 48.524 49.9488C45.1019 48.0958 41.5593 46.9407 37.9012 46.4774V43C39.6713 43.1158 41.8569 43.2325 44.4531 43.3483C47.0493 43.4642 49.8819 43.5225 52.9502 43.5225H59.5021C61.7434 43.4068 64.0441 43.3483 66.4033 43.3483C68.7627 43.2326 71.063 43.1158 73.3045 43V46.4774C68.3512 46.5934 65.1076 47.5748 63.5729 49.4263C62.039 51.1634 61.9766 53.7134 63.3923 57.0717C64.8084 60.4305 67.4651 64.5433 71.3594 69.4078L88.3534 90.6024C90.5955 93.3819 93.4284 95.6982 96.8505 97.5512C99.9168 99.1633 103.695 100.062 108.184 100.278V61.414C108.184 57.1294 107.844 54.0015 107.16 52.0328C106.476 49.9485 105.105 48.5596 103.053 47.8647C101.727 47.3101 99.9453 46.9349 97.7116 46.7056C96.6329 46.5997 95.4617 46.514 94.1948 46.4774V43C96.9088 43.1158 100.332 43.2325 104.462 43.3483C108.263 43.458 112.117 43.5107 116.024 43.5165C119.019 43.5132 121.942 43.4843 124.792 43.4444C126.438 43.4169 128.041 43.3933 129.598 43.3483C133.608 43.2326 136.852 43.1158 139.33 43V43.1862ZM124.997 147.586C124.997 151.755 125.349 154.882 126.057 156.967C126.765 159.051 128.18 160.44 130.303 161.135C131.078 161.404 132.009 161.621 133.085 161.82C134.225 161.931 135.501 162.006 136.915 162.006C148.088 162.006 156.185 159.398 161.201 154.186C166.331 148.859 168.897 141.332 168.898 131.604C168.898 122.686 166.502 115.791 161.713 110.926C157.039 106.063 149.286 103.635 138.456 103.635H124.997V147.586ZM138.601 46.5134C134.953 46.6624 132.185 47.1041 130.303 47.8647C128.18 48.5597 126.765 49.9494 126.057 52.0328C125.349 54.0015 124.997 57.1294 124.997 61.414V100.68H135.548C142.274 100.68 147.46 99.4024 151.109 96.8545C154.757 94.1909 157.268 90.7192 158.636 86.4344C160.004 82.0338 160.689 77.3422 160.69 72.3626C160.69 63.7933 158.808 57.3632 155.047 53.0778C151.668 49.0019 146.184 46.8147 138.601 46.5134Z" fill="black"/>
</svg>
